<?xml version="1.0" encoding="UTF-8"?>
<svg id="Capa_1" data-name="Capa 1" xmlns="http://www.w3.org/2000/svg" viewBox="0 0 261.96 55.23">
  <defs>
    <style>
      .cls-1 {
        fill: #fff;
      }

      .cls-2 {
        fill: #be5a6f;
        fill-rule: evenodd;
      }

      .cls-3 {
        fill: #010101;
      }
    </style>
  </defs>
  <path id="path27" class="cls-3" d="m48.71,28.48h-13.64c.05,2.15.63,3.82,1.73,5,1.11,1.17,2.63,1.75,4.57,1.75,2.17,0,4.18-.72,6-2.17v2.91c-1.7,1.22-3.94,1.83-6.73,1.83s-4.88-.87-6.43-2.62c-1.56-1.76-2.34-4.23-2.34-7.42,0-3,.85-5.45,2.55-7.33,1.71-1.89,3.83-2.83,6.36-2.83s4.49.81,5.87,2.45c1.38,1.64,2.08,3.91,2.08,6.81v1.62h0Zm-3.17-2.62c0-1.78-.45-3.17-1.3-4.17-.85-.99-2.02-1.49-3.52-1.49s-2.69.52-3.71,1.56-1.64,2.41-1.89,4.09h10.43Zm35.31,11.51h-3.09v-11.09c0-2.14-.33-3.69-1-4.64s-1.77-1.43-3.32-1.43c-1.33,0-2.46.6-3.38,1.81-.92,1.2-1.38,2.65-1.38,4.34v11.01h-3.09v-11.47c0-3.8-1.47-5.7-4.4-5.7-1.36,0-2.47.57-3.36,1.72-.88,1.13-1.32,2.61-1.32,4.43v11.01h-3.09v-19.32h3.09v3.05h.07c1.37-2.34,3.37-3.51,6-3.51,1.33,0,2.48.37,3.45,1.12.98.73,1.65,1.69,2.02,2.89,1.44-2.66,3.58-4,6.41-4,4.25,0,6.37,2.62,6.37,7.86v11.92Zm7.24-24.22c-.55,0-1.03-.19-1.42-.57-.39-.37-.59-.85-.59-1.43s.2-1.06.59-1.43c.39-.39.86-.59,1.42-.59s1.03.2,1.43.59c.4.37.6.85.6,1.43s-.2,1.03-.6,1.42c-.39.39-.86.59-1.43.59Zm1.51,18.83c0,1.77.68,2.66,2.06,2.66.55,0,1.05-.07,1.49-.21v2.79c-.24.07-.56.12-.96.17-.39.07-.81.1-1.25.1-.62,0-1.2-.1-1.73-.3-.54-.2-1.01-.5-1.42-.93-.39-.42-.7-.93-.94-1.55-.23-.63-.34-1.36-.34-2.19v-14.46h3.09s0,13.92,0,13.92Zm25.2,5.4h-5.97v-2.66h-.07c-1.36,2.08-3.35,3.13-6,3.13-2.42,0-4.35-.85-5.83-2.55-1.47-1.71-2.21-4.09-2.21-7.15s.81-5.75,2.43-7.66c1.62-1.92,3.74-2.89,6.37-2.89,2.49,0,4.22.9,5.21,2.68h.07v-11.49h5.97l.02,28.59h0Zm-5.83-9.4v-1.45c0-1.26-.37-2.3-1.09-3.13-.73-.83-1.68-1.25-2.83-1.25-1.33,0-2.36.52-3.09,1.56-.74,1.03-1.12,2.45-1.12,4.27,0,1.7.36,3,1.07,3.92s1.72,1.38,3,1.38c1.2,0,2.19-.48,2.95-1.45.77-.97,1.16-2.25,1.16-3.83,0,0-.05-.02-.05-.02Zm29.26-9.92l-7.83,20.86c-1.89,5.02-4.73,7.53-8.53,7.53-1.45,0-2.64-.16-3.57-.49v-4.75c.79.46,1.65.7,2.59.7,1.54,0,2.6-.72,3.21-2.17l1.02-2.39-7.83-19.28h6.6l3.61,11.75c.23.73.4,1.59.53,2.59h.07c.11-.73.32-1.58.63-2.55l3.64-11.79h5.87v-.02Zm21.09,19.31h-5.94v-10.72c0-3-1.07-4.49-3.21-4.49-1.03,0-1.88.4-2.55,1.19s-1,1.8-1,3.02v11.01h-5.97v-19.33h5.97v3.05h.07c1.42-2.35,3.49-3.52,6.2-3.52,4.27,0,6.41,2.65,6.41,7.96v11.83h0Zm20.81,0h-5.64v-2.78h-.07c-1.29,2.17-3.22,3.25-5.75,3.25-1.87,0-3.35-.53-4.43-1.58-1.07-1.07-1.6-2.49-1.6-4.27,0-3.74,2.22-5.91,6.66-6.49l5.24-.7c0-2.12-1.15-3.17-3.44-3.17s-4.49.68-6.56,2.06v-4.49c.83-.43,1.96-.81,3.39-1.13,1.45-.33,2.76-.49,3.94-.49,5.51,0,8.26,2.75,8.26,8.25v11.54-.02Zm-5.61-7.83v-1.3l-3.51.46c-1.94.25-2.91,1.12-2.91,2.62,0,.68.24,1.24.7,1.68.48.43,1.12.64,1.92.64,1.12,0,2.03-.39,2.73-1.16.7-.78,1.06-1.76,1.06-2.95,0,0,0,.02,0,.02Zm41.02,7.83h-5.94v-11.02c0-2.81-1.03-4.21-3.09-4.21-.98,0-1.78.42-2.39,1.27-.62.85-.93,1.9-.93,3.17v10.83h-5.97v-11.13c0-2.73-1.01-4.09-3.04-4.09-1.02,0-1.84.4-2.45,1.2-.6.81-.9,1.9-.9,3.28v10.74h-5.97v-19.35h5.97v3.02h.07c.62-1.03,1.48-1.87,2.59-2.51,1.12-.67,2.34-1,3.66-1,2.73,0,4.6,1.2,5.6,3.61,1.47-2.4,3.63-3.61,6.49-3.61,4.2,0,6.3,2.59,6.3,7.77v12.04h0Zm7.6-22.38c-1.01,0-1.83-.29-2.47-.89-.64-.6-.96-1.34-.96-2.21s.32-1.62.96-2.19c.64-.55,1.47-.83,2.47-.83s1.84.28,2.47.83c.64.55.96,1.29.96,2.19s-.32,1.64-.96,2.22c-.63.58-1.45.86-2.47.86h0Zm2.89,15.84c0,.81.2,1.44.59,1.86.39.42.91.63,1.56.63.33,0,.66-.03,1-.1.33-.07.66-.12,1-.19v4.18c-.72.19-1.48.34-2.28.46-.79.12-1.62.19-2.49.19-.79,0-1.51-.13-2.17-.4-.64-.26-1.2-.64-1.66-1.13-.46-.5-.81-1.11-1.06-1.81s-.37-1.5-.37-2.38v-14.09h5.93l-.04,12.77h0Zm21.24,5.83c-1.34.78-3.29,1.17-5.83,1.17-2.97,0-5.37-.9-7.2-2.69s-2.75-4.12-2.75-6.96c0-3.28.98-5.87,2.95-7.76,1.98-1.89,4.61-2.83,7.9-2.83,2.28,0,3.92.3,4.94.9v5.05c-1.25-.93-2.64-1.39-4.17-1.39-1.71,0-3.07.5-4.08,1.51-.99.99-1.49,2.37-1.49,4.13s.48,3.05,1.43,4.04c.95.97,2.27,1.45,3.94,1.45,1.48,0,2.94-.46,4.35-1.39v4.78Z"/>
  <path id="path101" class="cls-3" d="m247.13,23.47v-4.83c1,.59,1.96.78,2.93,1.07.9.28,1.83.42,2.78.43,1.06,0,1.89-.15,2.49-.43.62-.29.93-.73.93-1.32,0-.36-.15-.71-.42-.94-.32-.28-.68-.5-1.07-.66-.43-.19-.9-.36-1.42-.51l-1.49-.51c-.77-.29-1.45-.6-2.03-.93-.58-.34-1.07-.73-1.47-1.17-.4-.45-.7-.97-.9-1.53-.2-.58-.3-1.27-.3-2.06,0-1.08.24-2.01.7-2.79.47-.77,1.12-1.42,1.89-1.9.83-.52,1.74-.89,2.69-1.09,1.02-.24,2.08-.36,3.17-.36.85,0,1.73.07,2.6.21.88.12,1.75.32,2.6.57v4.6c-.76-.44-1.58-.77-2.43-.98-.85-.23-1.7-.34-2.53-.34-.37,0-.75.03-1.12.11-.34.07-.64.16-.9.3-.25.11-.46.28-.63.51-.15.2-.23.45-.23.7,0,.33.11.65.34.9s.52.47.89.66c.39.19.8.35,1.2.49l1.34.43c.73.25,1.46.55,2.15.9.6.3,1.16.68,1.64,1.15.46.43.82.96,1.06,1.55.25.59.37,1.29.37,2.11,0,1.15-.25,2.12-.76,2.95-.5.81-1.17,1.49-1.98,1.98-.83.5-1.77.86-2.83,1.09-1.07.24-2.17.36-3.34.36-2.12,0-4,0-5.81-.65l-.11-.07v.02Z"/>
  <path id="path103" class="cls-2" d="m29.72,55.23c-10.61,0-20.42-5.27-25.74-13.81C-1.33,32.87-1.33,22.34,3.98,13.79,9.29,5.25,19.1,0,29.72,0"/>
  <path id="path105" class="cls-1" d="m15.62,36.89v-3.33c1.74,1.25,3.67,1.86,5.76,1.86,2.82,0,4.22-.9,4.22-2.71,0-.51-.12-.94-.37-1.3-.22-.37-.55-.68-.98-.96-.41-.28-.89-.52-1.45-.73-.55-.23-1.14-.46-1.78-.7-.89-.34-1.67-.68-2.34-1-.67-.35-1.22-.74-1.67-1.16-.45-.44-.77-.94-1-1.49-.22-.55-.33-1.2-.33-1.94,0-.9.21-1.7.64-2.39.43-.7,1-1.29,1.72-1.75.72-.48,1.53-.84,2.44-1.07.93-.24,1.87-.36,2.86-.36,1.73,0,3.28.28,4.66.86v3.13c-1.47-.93-3.17-1.39-5.08-1.39-.6,0-1.14.07-1.62.2-.48.12-.9.31-1.25.55-.34.24-.6.53-.8.86-.18.33-.28.69-.28,1.09,0,.5.09.92.28,1.26.2.34.47.64.84.9s.81.5,1.33.72c.52.21,1.12.45,1.78.7.89.33,1.68.66,2.38,1s1.3.72,1.8,1.16c.5.42.87.92,1.13,1.49.28.55.41,1.22.41,2,0,.95-.22,1.78-.67,2.48-.43.7-1.01,1.29-1.74,1.75-.73.46-1.57.81-2.52,1.03-.95.23-1.95.34-2.99.34-2.06,0-3.84-.39-5.36-1.16l-.04.05h.02Z"/>
</svg>